# xmcd CD database file
#
# Track frame offsets:
#	150
#	24101
#	34401
#	49673
#	69037
#	86104
#	99114
#	112971
#	130009
#	151432
#	163179
#	180284
#	197632
#	217798
#	245255
#	261530
#	277913
#	292511
#	308364
#
# Disc length: 4324 seconds
#
# Revision: 0
# Processed by: cddbd v1.5.2PL0 Copyright (c) Steve Scherf et al.
# Submitted via: CDex 1.70beta2
#
DISCID=e710e213
DTITLE=Високосный год - Приносящий удачу
DYEAR=2003
DGENRE=Blues
TTITLE0=Приносящий удачу
TTITLE1=Кино
TTITLE2=Журавли
TTITLE3=Тихий огонёк
TTITLE4=Метро
TTITLE5=Лучшая песня о любви
TTITLE6=Некий никто
TTITLE7=Фонарики
TTITLE8=Шестой день осени
TTITLE9=Подожди
TTITLE10=21-й встречный
TTITLE11=Прилёг и задремел
TTITLE12=1637
TTITLE13=Metrojazz
TTITLE14=Ненужная песенка
TTITLE15=Звёздочка
TTITLE16=Красная стрела
TTITLE17=К другу
TTITLE18=Прости меня
EXTD=YEAR: 2003
EXTT0=
EXTT1=
EXTT2=
EXTT3=
EXTT4=
EXTT5=
EXTT6=
EXTT7=
EXTT8=
EXTT9=
EXTT10=
EXTT11=
EXTT12=
EXTT13=
EXTT14=
EXTT15=
EXTT16=
EXTT17=
EXTT18=
PLAYORDER=
